# xmcd CD database file
# Copyright (C) 1993-1998 Ti Kan
#
# Track frame offsets:
#	150
#	14028
#	31878
#	68987
#	98499
#	116107
#	142759
#	167258
#	183178
#	210450
#	224647
#	240485
#	256490
#
# Disc length: 3469 seconds
#
# Revision: 1
# Processed by: cddbd v1.4b41PL1 Copyright (c) Steve Scherf et al.
# Submitted via: xmcd 2.1 PL2
#
DISCID=af0d8b0d
DTITLE=Jimmy Thackery And The Drivers - Switching Gears
DYEAR=1900
DGENRE=
TTITLE0=I've Got Other Plans
TTITLE1=Dancing An Broken Glass
TTITLE2=Roy's Bluz
TTITLE3=It's My Own Fault
TTITLE4=Monkey
TTITLE5=I Wouldn't Change A Thing
TTITLE6=Write If You Find Love
TTITLE7=I Got To Be Strong
TTITLE8=Still Raining, Still Dreaming
TTITLE9=If This Is Love
TTITLE10=Take Me With You When You Go
TTITLE11=Gin In The Morning
TTITLE12=Still Raining, Still Dreaming
EXTD=
EXTT0=
EXTT1=
EXTT2=
EXTT3=
EXTT4=
EXTT5=
EXTT6=
EXTT7=
EXTT8=
EXTT9=
EXTT10=
EXTT11=
EXTT12=
PLAYORDER=
